<svg width="286" height="314" xmlns="http://www.w3.org/2000/svg" xmlns:xlink="http://www.w3.org/1999/xlink"><defs><path id="a" d="M0 0L286 0 286 314 0 314z"/><path d="M1.288 0h20.887c.477 0 .864.387.864.864v22.12c0 .42-.303.779-.717.851-9.545 1.662-15.988.982-19.327-2.039C.244 18.616-.612 11.612.428.782A.864.864 0 0 1 1.288 0z" id="c"/><path d="M2.233-1H23.12c.477 0 .864.387.864.864v22.12c0 .42-.303.779-.717.85-9.545 1.662-15.987.983-19.327-2.038C1.19 17.616.333 10.612 1.373-.219A.864.864 0 0 1 2.233-1z" id="d"/><path d="M.864 0h20.694c.477 0 .864.387.864.864v22.04c0 .453-.35.83-.802.862-10.366.743-17.21.494-20.533-.748.479-4.651.119-12.002-1.08-22.052A.864.864 0 0 1 .863 0z" id="e"/><path d="M1.425-1H22.12c.477 0 .864.387.864.864v22.04c0 .453-.35.83-.802.862-10.366.743-17.21.494-20.533-.748.48-4.651.12-12.002-1.08-22.052A.864.864 0 0 1 1.425-1z" id="f"/><path d="M.864 0h20.787c.44 0 .81.33.86.768 1.045 9.312 1.016 16.959-.09 22.939-9.536-1.372-17.386-1.608-21.334-.689.479-4.651.119-12.002-1.08-22.052A.864.864 0 0 1 .863 0z" id="g"/><path d="M2.425-1h20.788c.44 0 .81.33.859.768 1.045 9.312 1.016 16.959-.089 22.939-9.537-1.372-17.386-1.608-21.335-.689.48-4.651.12-12.002-1.08-22.052A.864.864 0 0 1 2.425-1z" id="h"/><path d="M1.502 0h20.869c.477 0 .864.387.864.864v22.051a.864.864 0 0 1-.792.861c-9.562.81-16.81.596-21.741-.644C-.213 19.869-.233 12.425.64.799.675.35 1.05 0 1.502 0z" id="i"/><path d="M2.251-1H23.12c.478 0 .864.387.864.864v22.05a.864.864 0 0 1-.79.862c-9.563.81-16.81.596-21.742-.644C.536 18.869.515 11.425 1.39-.201 1.424-.65 1.8-1 2.25-1z" id="j"/></defs><g fill="none" fill-rule="evenodd"><mask id="b" fill="#fff"><use xlink:href="#a"/></mask><g mask="url(#b)"><g transform="translate(198 2)"><path d="M3.167 7.699h84.9c.44 0 .809.33.858.766l15.018 131.34a.864.864 0 0 1-.091.495c-1.437 2.784-3.065 4.228-4.886 4.33-25.228 1.425-57.583 2.738-97.067 3.937a.864.864 0 0 1-.89-.845C.43 120.818.154 106.574.178 104.99c.024-1.594.732-33.743 2.124-96.446a.864.864 0 0 1 .864-.845z" fill-opacity=".113" fill="#500F50" fill-rule="nonzero"/><path stroke="#DED4DE" stroke-width="1.296" fill="#EEEAEE" d="M2.59007249 0L110.33575 0 110.33575 144.497314 2.59007249 144.497314z"/></g></g><g mask="url(#b)"><g transform="translate(118 50)"><g stroke="#DED4DE" stroke-width="1.296"><path d="M87.105 247.907c1.786-11.383 11.868-16.14 10.078-28.152-1.962-13.169-6.991-19.79 0-34.328 5.146-10.698 1.51-24.094 11.4-35.695 9.89-11.602 18.703-20.687 32.489-12.549 12.567 7.419-11.837 33.045-14.64 41.631-3.369 10.322 6.72 27.627 5.253 36.907-2.405 15.216-27.354 12.36-34.502 32.186" fill="#E6DFE6"/><g transform="translate(58.599)" fill="#EEEAEE"><path d="M20.864 252.48C.704 230.454 6.483 192.89 5.683 170.098c-.522-14.868 9.813-50.369 1.643-73.814C-11.271 42.92 11.634.177 19.386.177c37.072 0 11.821 64.095 21.027 77.282 9.205 13.188 19.201 19.003 19.425 31.883.286 16.525-17.03 26.25-15.859 42.987 1.271 18.156 17.015 16.99 14.189 45.678-2.031 20.612-31.44 49.348-31.338 52.381l-5.966 2.092z"/><path d="M22.263 46.358l8.55 205.182m5.655-139.729l-10.674 11.222m-11.65 44.18l13.692 12.907" stroke-linecap="round" stroke-linejoin="round"/></g><g transform="rotate(-1 2296.11 12.176)"><path d="M78.452 211.062c-5.691-12.616-6.92-23.557-16.286-34.048-6.342-7.103-16.038-11.868-19.546-22.816-1.722-5.371 3.252-29.234-3.105-37.988-7.747-10.669-22.998-20.201-27.996-29.956C-9.88 44.49 1.875 5.716 22.63.259c9.007-2.367 26.774 21.447 26.774 35.548 0 6.48-4.186 23.56 0 29.563 6.614 9.484 16.475 4.413 24.49 18.111 5.816 9.94-1.352 47.093-2.08 50.333-2.135 9.495 15.672 28.333 17.894 33.533 3.28 7.68-5.463 29.534-.763 43.9.342 1.044-3.156.983-10.494-.185z" fill="#F8F5F8"/><path d="M26.268 31.14l59.254 184.92M63.469 104.931l-8.238 14.306m-30.31-44.77l16.993 5.621" fill="#EEEAEE" stroke-linecap="round" stroke-linejoin="round"/></g></g><path d="M49.397 248h77.754c3.551 36.547-3.035 70-39.055 70-36.02 0-43.755-35-38.7-70z" stroke="#DED4DE" stroke-width="1.296" fill="#F3F0F3"/><path fill-opacity=".1" fill="#500F50" fill-rule="nonzero" d="M128 264.666667L49.6694915 272 49 260z"/><path stroke="#DED4DE" stroke-width="1.296" fill="#F3F0F3" d="M46 248L130 248 130 265 46 265z"/></g></g><g mask="url(#b)"><g transform="translate(0 99)"><use fill="#E0D6E0" xlink:href="#c"/><use fill="#EBE4EB" xlink:href="#d"/></g><g transform="translate(28 99)"><use fill="#E0D6E0" xlink:href="#e"/><use fill="#EBE4EB" xlink:href="#f"/></g><g transform="translate(27 128)"><use fill="#E0D6E0" xlink:href="#g"/><use fill="#EBE4EB" xlink:href="#h"/></g><g transform="translate(54 99)"><use fill="#E0D6E0" xlink:href="#i"/><use fill="#EBE4EB" xlink:href="#j"/></g></g></g></svg>