
<svg viewBox="0 0 80 38" version="1.1" xmlns="http://www.w3.org/2000/svg" xmlns:xlink="http://www.w3.org/1999/xlink">
    <g id="Page-1" stroke="none" stroke-width="1" fill="none" fill-rule="evenodd">
        <g id="shape" transform="translate(0.653732, 0.270726)" fill-rule="nonzero">
            <path d="M75.863987,9.7647122 C75.7143378,9.54155431 75.5453905,9.31365957 75.3834606,9.0978701 C69.9501273,1.81769466 60.3490747,-1.28493692 51.6257413,1.26944904 C47.9185484,2.36190518 47.2675809,3.35893914 43.4005634,3.49472862 C38.7121423,3.65999177 34.2191001,4.081532 30.5273457,1.8938127 C26.8476966,-0.30109958 18.8403125,-0.257942296 14.8643475,0.797320862 C9.16952298,2.3352156 6.11281152,3.81401045 2.57379398,8.52085255 C-1.9326797,14.5276947 -0.00804812453,22.075414 4.39533784,27.5205017 C6.5523203,30.1957648 9.39765363,32.756642 12.5362677,34.2383964 C13.9788813,34.9194806 19.8416704,36.8611734 22.9636307,36.6386483 C31.0961301,36.0589852 50.7684214,33.126642 50.6028073,35.4936596 C50.3963161,38.6740104 75.1176797,38.5279894 77.0459253,28.6997438 C78.7313639,20.1176385 80.9894256,17.1627824 75.863987,9.7647122 Z" id="Path" fill="#FAF9F7"></path>
            <path d="M5.33928754,23.7784968 C1.81220763,23.1621481 -0.221832923,28.4800554 2.85308782,31.5557463 C5.41135744,34.1105157 8.16577908,32.0523282 9.02704093,29.5864181 C10.1205427,26.4373217 8.28554231,24.2920778 5.33928754,23.7784968 L5.33928754,23.7784968 Z" id="Path" fill-opacity="0.5" fill="#E8E6E1"></path>
            <path d="M10.1682685,36.0369028 C11.1276196,37.1723558 11.7307687,36.4265738 12.0537419,35.3306137 C12.4638051,33.9310153 12.1791112,33.9146061 11.0742656,33.6863478 C9.75161065,33.4124151 9.01517324,34.669929 10.1682685,36.0369028 Z" id="Path" fill="#E8E6E1" transform="translate(10.914077, 35.125976) rotate(-47.000000) translate(-10.914077, -35.125976) "></path>
            <path d="M9.33820414,32.5282003 C10.2975552,33.6636533 10.9007043,32.9178713 11.2236775,31.8219112 C11.6337407,30.4223128 11.3490468,30.4059036 10.2442012,30.1776453 C8.92154627,29.9037126 8.18510886,31.1612266 9.33820414,32.5282003 Z" id="Path" fill="#E8E6E1" transform="translate(10.084013, 31.617273) rotate(41.000000) translate(-10.084013, -31.617273) "></path>
            <path d="M12.9456173,34.52484 C13.9049684,35.6602931 14.5081175,34.914511 14.8310907,33.818551 C15.2411539,32.4189526 14.9564599,32.4025433 13.8516144,32.1742851 C12.5289594,31.9003523 11.792522,33.1578663 12.9456173,34.52484 Z" id="Path" fill="#E8E6E1" transform="translate(13.691426, 33.613913) rotate(-227.000000) translate(-13.691426, -33.613913) "></path>
        </g>
    </g>
</svg>