<svg width="316" height="331" xmlns="http://www.w3.org/2000/svg"><g fill="none" fill-rule="evenodd"><g transform="translate(217 195)"><g transform="rotate(19 -128.396 241.253)"><path d="M9.169 50.845c4.7 1.437 14.51-8.125 18.842-22.296 4.333-14.17 4.835-23.168-2.863-25.522C17.45.674 12.835 8.414 8.503 22.585c-4.333 14.17-4.035 26.823.666 28.26z" fill="#EEEAEE"/><path d="M24.728 3.885l-16.8 54" stroke="#D7CED7" stroke-width="2" stroke-linecap="round" stroke-linejoin="round"/></g><g transform="rotate(-24 91.266 16.606)"><path d="M15.942 83.228C24.64 85.396 40.996 69.43 46.8 46.152c5.804-23.279 5.427-37.975-8.816-41.526-14.243-3.552-21.475 9.248-27.28 32.526-5.803 23.279-3.458 43.908 5.238 46.076z" fill="#E6DFE6"/><path d="M38.301 6.373l-26.4 93.6" stroke="#D7CED7" stroke-width="2" stroke-linecap="round" stroke-linejoin="round"/></g><g transform="rotate(-6 67.384 -331.306)"><path d="M12.747 82.785c7.013 1.748 21.115-14.78 26.92-38.059 5.803-23.278 6.163-37.79-5.323-40.655C22.857 1.207 16.36 14.191 10.557 37.47c-5.804 23.278-4.823 43.567 2.19 45.316z" fill="#F8F5F8"/><path d="M34.26 5.583l-26.4 93.6" stroke="#D7CED7" stroke-width="2" stroke-linecap="round" stroke-linejoin="round"/></g><g transform="rotate(-32 128.194 36.381)"><path d="M8.722 51.789c4.7 1.437 14.51-8.125 18.843-22.296C31.897 15.323 32.4 6.325 24.7 3.971 17.003 1.618 12.388 9.358 8.056 23.53c-4.332 14.17-4.034 26.823.666 28.26z" fill="#F8F5F8"/><path d="M23.795 4.657l-16.8 54" stroke="#D7CED7" stroke-width="2" stroke-linecap="round" stroke-linejoin="round"/></g><path d="M19.867 103.2H83.23c2.916 26.34 1.064 64.8-31.593 64.8-32.658 0-33.362-38.46-31.771-64.8z" stroke="#DED4DE" stroke-width="1.296" fill="#F3F0F3"/><path fill="#000" opacity=".07" d="M84.2 118.8L20.1817881 127.2 19.4 118.8z"/><path stroke="#DED4DE" stroke-width="1.296" fill="#F3F0F3" d="M17 103.2L86.6 103.2 86.6 118.8 17 118.8z"/></g><g transform="translate(-121)"><g transform="translate(176 119)"><path d="M3.044 0h120.35c.478 0 .865.387.865.864v78.608a.864.864 0 0 1-.8.862c-18.69 1.402-32.32 2.207-40.888 2.413-50.415 1.213-79.508.31-80.372 0-2.267-.816-1.683-6.92-1.637-9.244.03-1.541.57-25.76 1.618-72.658A.864.864 0 0 1 3.044 0z" fill="#E6DFE6"/><path d="M3.613 0h120.332c.477 0 .864.387.864.864v78.545a.864.864 0 0 1-.864.864H3.613a.864.864 0 0 1-.864-.864V.864c0-.477.387-.864.864-.864z" stroke="#DED4DE" stroke-width="1.296" fill="#EEEAEE"/></g><g transform="translate(176)"><path d="M3.353 0h49.464c.477 0 .864.387.864.864v91.008c0 .289.144.558.385.719 2.22 1.48-1.384 2.352-10.811 2.614-12.843.358-39.762.358-40.747 0C-.077 94.266.588 87.245.64 84.57c.034-1.774.65-29.682 1.848-83.724A.864.864 0 0 1 3.353 0z" fill="#E6DFE6"/><path d="M3.999 0h56.124c.477 0 .864.387.864.864v90.632a.864.864 0 0 1-.864.864H3.999a.864.864 0 0 1-.864-.864V.864c0-.477.387-.864.864-.864z" stroke="#DED4DE" stroke-width="1.296" fill="#EEEAEE"/></g><path d="M3.18 11.074h118.87c.451 0 .826.347.861.797l14.59 187.074a.864.864 0 0 1-.455.83c-2.28 1.21-7.012 1.815-14.197 1.815-21.44 0-62.385.26-122.834.778-.02-32.122-.02-48.657 0-49.604.02-.944.787-47.891 2.301-140.84a.864.864 0 0 1 .864-.85z" fill-opacity=".06" fill="#500F50" fill-rule="nonzero"/><path stroke="#DED4DE" stroke-width="1.296" fill="#EEEAEE" d="M1.99851301 0L147.889963 0 147.889963 199.334831 1.99851301 199.334831z"/><path stroke="#DED4DE" stroke-width="1.296" fill="#EEEAEE" d="M10.9918216 9.06067416L138.896654 9.06067416 138.896654 190.274157 10.9918216 190.274157z"/></g></g></svg>